<?xml version="1.0" encoding="iso-8859-1"?>
<!-- Generator: Adobe Illustrator 27.6.1, SVG Export Plug-In . SVG Version: 6.00 Build 0)  -->
<svg version="1.1" id="Layer_1" xmlns="http://www.w3.org/2000/svg" xmlns:xlink="http://www.w3.org/1999/xlink" x="0px" y="0px"
	 viewBox="0 0 181.471 40.576" style="enable-background:new 0 0 181.471 40.576;" xml:space="preserve">
<g>
</g>
<g>
	<polygon style="fill:#FFFFFF;" points="6.858,0 6.854,10.579 7.95,10.577 3.638,22.025 0,22.02 0,32.602 35.315,32.602 
		35.315,22.006 31.651,22.001 27.377,10.585 28.45,10.59 28.45,0.004 	"/>
	<g>
		<path style="fill:#BD2036;" d="M17.651,3.954l7.564,19.614c0,0,0.969,2.387,2.543,2.387h-5.507c0,0,0.276,0.04,0.552-0.419
			c0.158-0.263,0.025-0.656,0.025-0.656l-1.703-4.379h-3.474h-3.459l-1.706,4.379c0,0-0.13,0.393,0.027,0.656
			c0.275,0.459,0.551,0.419,0.551,0.419H7.557c1.573,0,2.543-2.387,2.543-2.387L17.651,3.954z"/>
	</g>
	<polygon style="fill:#00275B;" points="17.658,3.929 24.478,3.929 24.478,6.657 21.645,6.657 29.095,25.858 31.298,25.858 
		31.298,28.683 22.065,28.683 22.065,25.935 19.473,25.935 19.473,31.324 34.046,31.324 34.046,23.289 30.774,23.294 25.528,9.308 
		27.175,9.308 27.175,1.278 17.658,1.278 8.14,1.278 8.14,9.308 9.789,9.308 4.542,23.276 1.269,23.289 1.269,31.324 15.844,31.324 
		15.844,25.935 13.251,25.935 13.251,28.683 4.018,28.683 4.018,25.858 6.221,25.858 13.671,6.657 10.838,6.657 10.838,3.929 	"/>
	<g>
		<path style="fill:#00275B;" d="M38.259,28.991c0.266,0.26,0.399,0.579,0.399,0.957c0,0.377-0.132,0.695-0.398,0.956
			c-0.266,0.26-0.591,0.39-0.977,0.39c-0.386,0-0.711-0.13-0.977-0.39c-0.265-0.261-0.398-0.579-0.398-0.956
			c0-0.378,0.134-0.697,0.399-0.957c0.267-0.261,0.591-0.391,0.976-0.391C37.667,28.6,37.993,28.73,38.259,28.991 M38.065,29.153
			c-0.212-0.216-0.473-0.325-0.782-0.325c-0.309,0-0.569,0.109-0.782,0.325c-0.213,0.217-0.318,0.482-0.318,0.795
			c0,0.314,0.105,0.579,0.318,0.795c0.213,0.216,0.473,0.323,0.782,0.323c0.308,0,0.568-0.107,0.782-0.323
			c0.212-0.216,0.319-0.481,0.319-0.795C38.384,29.635,38.278,29.37,38.065,29.153 M36.687,29.169h0.123h0.501
			c0.168,0,0.3,0.037,0.396,0.111c0.095,0.075,0.143,0.179,0.143,0.311c0,0.143-0.048,0.257-0.144,0.339
			c-0.072,0.061-0.163,0.099-0.276,0.115l0.448,0.681h-0.141h-0.143l-0.403-0.673l-0.26,0.002v0.671h-0.122h-0.122V29.169z
			 M36.931,29.847h0.332c0.115,0,0.199-0.02,0.252-0.061c0.054-0.042,0.08-0.106,0.08-0.194c0-0.077-0.026-0.134-0.08-0.17
			c-0.053-0.037-0.137-0.055-0.252-0.055h-0.332V29.847z"/>
	</g>
	<polygon style="fill:#FFFFFF;" points="17.645,18.422 20.31,18.422 17.698,11.542 14.993,18.422 	"/>
	<rect x="43.2" style="fill:#00275B;" width="0.632" height="40.575"/>
	<g>
		<path style="fill:#00275B;" d="M174.886,26.403h-1.091c0.205,0.157,0.345,0.285,0.421,0.385s0.124,0.223,0.146,0.37
			c0.022,0.146,0.033,0.415,0.033,0.805v7.303c0,0.38-0.011,0.645-0.033,0.794c-0.022,0.149-0.07,0.275-0.146,0.377
			c-0.076,0.103-0.216,0.232-0.421,0.389h2.637c-0.215-0.166-0.359-0.298-0.433-0.396c-0.073-0.097-0.122-0.229-0.146-0.395
			c-0.025-0.166-0.037-0.423-0.037-0.769v-2.893c0-0.42,0.016-0.704,0.048-0.85c0.032-0.147,0.111-0.298,0.238-0.454
			c0.176-0.205,0.394-0.361,0.655-0.469c0.262-0.107,0.549-0.161,0.861-0.161c0.684,0,1.194,0.225,1.531,0.674
			c0.117,0.146,0.196,0.314,0.238,0.501c0.041,0.188,0.062,0.47,0.062,0.846v2.806c0,0.346-0.012,0.604-0.036,0.772
			c-0.025,0.169-0.075,0.304-0.151,0.407c-0.075,0.102-0.218,0.229-0.428,0.381h2.637c-0.279-0.225-0.448-0.417-0.509-0.575
			c-0.062-0.159-0.092-0.487-0.092-0.985v-3.289c0-0.425-0.028-0.752-0.084-0.981c-0.056-0.23-0.158-0.447-0.304-0.652
			c-0.161-0.22-0.358-0.407-0.59-0.561c-0.232-0.153-0.493-0.271-0.783-0.351c-0.291-0.081-0.597-0.121-0.92-0.121
			c-0.493,0-0.953,0.09-1.38,0.271c-0.428,0.181-0.758,0.425-0.993,0.732v-4.211C175.631,26.303,175.321,26.403,174.886,26.403
			 M170.711,29.311c-0.683,0-1.285,0.09-1.805,0.271s-0.992,0.466-1.417,0.857c-0.86,0.791-1.289,1.75-1.289,2.878
			c0,0.528,0.107,1.022,0.322,1.484c0.215,0.461,0.517,0.859,0.908,1.193c0.391,0.335,0.846,0.592,1.366,0.773
			s1.095,0.271,1.725,0.271c0.859,0,1.533-0.095,2.021-0.286l0.931-1.545c-0.264,0.171-0.531,0.314-0.802,0.428
			c-0.271,0.115-0.541,0.199-0.81,0.253c-0.268,0.054-0.537,0.081-0.805,0.081c-0.611,0-1.161-0.128-1.652-0.385
			c-0.491-0.256-0.878-0.614-1.161-1.073c-0.283-0.459-0.425-0.967-0.425-1.523c0-0.518,0.109-0.975,0.326-1.374
			c0.217-0.397,0.53-0.704,0.938-0.919c0.407-0.215,0.868-0.322,1.38-0.322c0.791,0,1.451,0.256,1.978,0.769v-1.633
			C171.873,29.377,171.297,29.311,170.711,29.311 M163.548,36.434c-0.075-0.1-0.125-0.231-0.15-0.392
			c-0.024-0.161-0.036-0.42-0.036-0.776v-2.608c0-0.649,0.112-1.13,0.337-1.443c0.136-0.2,0.327-0.357,0.571-0.472
			s0.508-0.172,0.791-0.172c0.322,0,0.571,0.085,0.747,0.256V29.37c-0.22-0.039-0.403-0.059-0.549-0.059
			c-0.411,0-0.777,0.104-1.099,0.311c-0.322,0.208-0.588,0.509-0.798,0.905v-1.304c-0.186,0.2-0.494,0.3-0.923,0.3h-1.099
			c0.205,0.157,0.346,0.286,0.421,0.389c0.076,0.102,0.125,0.227,0.147,0.373c0.022,0.147,0.033,0.413,0.033,0.798v4.183
			c0,0.38-0.011,0.645-0.033,0.794c-0.022,0.149-0.071,0.275-0.147,0.377c-0.075,0.103-0.216,0.232-0.421,0.389h2.622
			C163.762,36.665,163.624,36.534,163.548,36.434 M158.158,36.013c0.08,0.219,0.24,0.405,0.48,0.556
			c0.19,0.118,0.39,0.199,0.6,0.246c0.21,0.046,0.506,0.084,0.886,0.113l0.689-1.033c-0.435-0.014-0.75-0.1-0.945-0.256
			c-0.181-0.132-0.293-0.275-0.337-0.428c-0.044-0.154-0.066-0.456-0.066-0.905v-2.043c0-0.581-0.018-0.985-0.055-1.212
			c-0.036-0.228-0.123-0.453-0.26-0.678c-0.444-0.708-1.335-1.062-2.673-1.062c-0.381,0-0.747,0.034-1.099,0.103l-1.047,1.589
			c0.517-0.249,0.925-0.416,1.223-0.502c0.298-0.085,0.61-0.128,0.938-0.128c0.293,0,0.555,0.042,0.787,0.125
			s0.411,0.201,0.538,0.355s0.191,0.331,0.191,0.531c0,0.283-0.119,0.498-0.355,0.644c-0.237,0.147-0.715,0.291-1.432,0.432
			c-0.992,0.191-1.685,0.396-2.08,0.616c-0.269,0.141-0.484,0.36-0.645,0.655c-0.161,0.296-0.242,0.607-0.242,0.934
			c0,0.688,0.269,1.274,0.806,1.758c0.459,0.41,1.084,0.615,1.875,0.615c0.308,0,0.598-0.032,0.872-0.095l0.93-1.179
			c-0.45,0.136-0.845,0.205-1.187,0.205c-0.527,0-0.939-0.115-1.234-0.345c-0.295-0.229-0.443-0.544-0.443-0.944
			c0-0.625,0.381-1.031,1.143-1.216c0.571-0.132,0.938-0.22,1.102-0.264c0.163-0.044,0.312-0.089,0.447-0.135
			c0.134-0.047,0.291-0.114,0.472-0.202v2.044C158.037,35.424,158.077,35.793,158.158,36.013 M147.294,30.717
			c0.366-0.307,0.818-0.461,1.355-0.461c1.118,0,1.79,0.591,2.014,1.772h-4.094C146.686,31.462,146.928,31.025,147.294,30.717
			 M152.326,32.761c0-0.498-0.091-0.959-0.271-1.381c-0.181-0.422-0.432-0.787-0.754-1.095c-0.323-0.307-0.704-0.547-1.143-0.718
			c-0.44-0.171-0.918-0.256-1.436-0.256c-0.527,0-1.014,0.077-1.461,0.231c-0.447,0.154-0.838,0.382-1.175,0.685
			c-0.259,0.234-0.486,0.511-0.681,0.831c-0.196,0.32-0.346,0.659-0.451,1.018c-0.105,0.359-0.157,0.721-0.157,1.088
			c0,0.747,0.189,1.416,0.567,2.006c0.379,0.591,0.911,1.05,1.597,1.377c0.686,0.327,1.459,0.491,2.318,0.491
			c0.254,0,0.507-0.012,0.758-0.037c0.251-0.024,0.491-0.064,0.718-0.12c0.227-0.056,0.465-0.131,0.714-0.224l0.857-1.509
			c-0.288,0.196-0.567,0.353-0.835,0.473c-0.269,0.12-0.556,0.207-0.861,0.263c-0.305,0.057-0.623,0.085-0.955,0.085
			c-0.621,0-1.168-0.117-1.641-0.352c-0.474-0.234-0.84-0.574-1.099-1.018c-0.259-0.444-0.403-0.972-0.432-1.582h5.823V32.761z
			 M141.345,29.311c-0.64,0-1.193,0.084-1.659,0.253c-0.466,0.168-0.824,0.414-1.073,0.736c-0.249,0.322-0.373,0.703-0.373,1.142
			c0,0.337,0.072,0.624,0.216,0.861s0.384,0.455,0.721,0.655c0.337,0.201,0.813,0.411,1.428,0.63
			c0.825,0.298,1.331,0.513,1.516,0.645c0.24,0.171,0.359,0.41,0.359,0.718c0,0.317-0.163,0.582-0.49,0.794
			c-0.328,0.213-0.733,0.319-1.216,0.319c-0.337,0-0.656-0.03-0.956-0.092c-0.3-0.061-0.609-0.162-0.927-0.304
			c-0.317-0.141-0.676-0.336-1.076-0.586l0.542,1.561c0.425,0.156,0.781,0.261,1.069,0.314c0.288,0.054,0.642,0.081,1.062,0.081
			c0.708,0,1.325-0.1,1.85-0.3c0.524-0.2,0.93-0.488,1.215-0.864c0.286-0.376,0.429-0.809,0.429-1.297
			c0-0.537-0.205-0.998-0.615-1.384c-0.205-0.186-0.434-0.337-0.685-0.454c-0.252-0.117-0.683-0.276-1.293-0.476
			c-0.43-0.137-0.764-0.259-1.003-0.367c-0.24-0.107-0.413-0.222-0.52-0.344c-0.108-0.122-0.162-0.259-0.162-0.41
			c0-0.264,0.133-0.477,0.4-0.641c0.266-0.163,0.619-0.245,1.058-0.245c0.615,0,1.265,0.205,1.948,0.615v-1.348
			C142.627,29.382,142.038,29.311,141.345,29.311 M131.889,30.717c0.366-0.307,0.818-0.461,1.355-0.461
			c1.118,0,1.789,0.591,2.014,1.772h-4.094C131.281,31.462,131.523,31.025,131.889,30.717 M136.92,32.761
			c0-0.498-0.09-0.959-0.271-1.381c-0.18-0.422-0.432-0.787-0.754-1.095c-0.322-0.307-0.703-0.547-1.143-0.718
			c-0.439-0.171-0.918-0.256-1.435-0.256c-0.527,0-1.014,0.077-1.461,0.231c-0.447,0.154-0.839,0.382-1.176,0.685
			c-0.259,0.234-0.486,0.511-0.681,0.831c-0.195,0.32-0.345,0.659-0.45,1.018c-0.105,0.359-0.158,0.721-0.158,1.088
			c0,0.747,0.189,1.416,0.568,2.006c0.378,0.591,0.91,1.05,1.596,1.377s1.459,0.491,2.319,0.491c0.253,0,0.506-0.012,0.758-0.037
			c0.251-0.024,0.49-0.064,0.717-0.12c0.227-0.056,0.466-0.131,0.715-0.224l0.856-1.509c-0.288,0.196-0.566,0.353-0.834,0.473
			c-0.269,0.12-0.556,0.207-0.861,0.263c-0.305,0.057-0.624,0.085-0.956,0.085c-0.62,0-1.167-0.117-1.641-0.352
			c-0.473-0.234-0.839-0.574-1.098-1.018c-0.259-0.444-0.403-0.972-0.432-1.582h5.822V32.761z M123.952,27.377
			c0.576,0,1.041,0.164,1.395,0.491c0.354,0.327,0.531,0.747,0.531,1.26c0,1.216-0.882,1.973-2.644,2.27
			c0.429,0.723,0.876,1.414,1.34,2.073c0.464,0.659,0.942,1.282,1.436,1.868c0.341,0.41,0.641,0.731,0.897,0.963
			c0.256,0.232,0.504,0.392,0.743,0.48c0.239,0.088,0.508,0.132,0.806,0.132c0.185,0,0.669-0.03,1.45-0.088
			c-0.625-0.327-1.295-0.869-2.01-1.626c-0.716-0.757-1.655-1.914-2.817-3.472c0.489-0.122,0.928-0.321,1.319-0.597
			c0.39-0.276,0.696-0.598,0.915-0.967c0.22-0.368,0.33-0.753,0.33-1.153c0-0.381-0.093-0.753-0.278-1.117
			c-0.186-0.364-0.442-0.665-0.769-0.905c-0.552-0.41-1.333-0.615-2.344-0.615c-0.269,0-0.493,0.005-0.674,0.015
			c-0.23,0.009-0.474,0.014-0.732,0.014h-2.3c0.195,0.103,0.344,0.226,0.447,0.37c0.102,0.144,0.172,0.342,0.208,0.593
			c0.037,0.252,0.055,0.605,0.055,1.059v6.379c0,0.454-0.018,0.807-0.055,1.059c-0.036,0.251-0.106,0.449-0.208,0.593
			c-0.103,0.144-0.252,0.267-0.447,0.37h3.003c-0.201-0.103-0.349-0.225-0.447-0.367c-0.098-0.141-0.165-0.339-0.201-0.593
			c-0.037-0.254-0.055-0.608-0.055-1.062v-7.309C123.27,27.417,123.639,27.377,123.952,27.377 M112.511,30.783
			c0.385,0.371,0.578,0.825,0.578,1.362c0,0.474-0.146,0.86-0.439,1.158s-0.676,0.446-1.15,0.446c-0.566,0-1.049-0.196-1.446-0.589
			c-0.398-0.393-0.597-0.87-0.597-1.432c0-0.43,0.157-0.787,0.472-1.073c0.315-0.286,0.704-0.428,1.168-0.428
			C111.654,30.227,112.125,30.412,112.511,30.783 M114.151,29.443c-0.483,0-0.988-0.02-1.516-0.059
			c-0.732-0.048-1.191-0.073-1.377-0.073c-0.6,0-1.151,0.12-1.651,0.359c-0.501,0.239-0.893,0.564-1.176,0.974
			s-0.425,0.867-0.425,1.37c0,0.351,0.076,0.693,0.227,1.025c0.152,0.332,0.364,0.62,0.638,0.864c0.18,0.157,0.344,0.27,0.49,0.341
			c0.147,0.071,0.364,0.145,0.652,0.223c-0.351,0.137-0.616,0.251-0.794,0.341c-0.179,0.09-0.301,0.173-0.367,0.249
			s-0.099,0.165-0.099,0.267c0,0.132,0.037,0.282,0.11,0.451c0.074,0.168,0.161,0.304,0.264,0.406
			c0.205,0.181,0.457,0.271,0.754,0.271c0.147,0,0.266-0.005,0.359-0.015c0.191-0.009,0.445-0.014,0.762-0.014
			c1.079,0,1.885,0.124,2.417,0.373s0.798,0.63,0.798,1.143c0,0.342-0.117,0.643-0.351,0.904c-0.235,0.262-0.565,0.466-0.993,0.612
			c-0.427,0.147-0.914,0.22-1.461,0.22c-0.825,0-1.482-0.153-1.97-0.458s-0.732-0.721-0.732-1.249c0-0.219,0.057-0.387,0.172-0.501
			c0.114-0.115,0.291-0.195,0.531-0.239c-0.298-0.127-0.584-0.19-0.857-0.19c-0.303,0-0.565,0.051-0.788,0.154
			c-0.222,0.102-0.39,0.248-0.505,0.436s-0.172,0.411-0.172,0.67c0,0.425,0.191,0.812,0.575,1.161
			c0.383,0.349,0.908,0.622,1.575,0.82c0.666,0.198,1.395,0.297,2.186,0.297c0.356,0,0.703-0.025,1.04-0.074
			c0.337-0.048,0.65-0.118,0.941-0.208c0.29-0.091,0.568-0.203,0.831-0.337c0.264-0.135,0.501-0.287,0.711-0.458
			c0.527-0.43,0.791-0.991,0.791-1.685c0-0.454-0.115-0.839-0.344-1.157c-0.162-0.21-0.379-0.404-0.652-0.582
			c-0.274-0.178-0.545-0.304-0.813-0.377c-0.323-0.093-0.663-0.155-1.022-0.187c-0.359-0.032-0.9-0.052-1.622-0.062
			c-0.44,0-0.66-0.1-0.66-0.301c0-0.097,0.05-0.179,0.151-0.245c0.1-0.066,0.26-0.121,0.479-0.165
			c0.684-0.068,1.209-0.173,1.575-0.315c0.596-0.214,1.045-0.505,1.348-0.871c0.302-0.366,0.454-0.796,0.454-1.289
			c0-0.401-0.093-0.757-0.278-1.07c-0.186-0.312-0.484-0.61-0.894-0.893c0.864,0.151,1.445,0.227,1.743,0.227
			c0.23,0,0.378-0.066,0.447-0.198l0.454-1.018C115.399,29.399,114.747,29.443,114.151,29.443 M100.312,29.523h-1.018
			c0.205,0.157,0.345,0.286,0.421,0.389c0.075,0.102,0.124,0.227,0.146,0.373c0.022,0.147,0.033,0.413,0.033,0.798v4.183
			c0,0.38-0.011,0.645-0.033,0.794c-0.022,0.149-0.071,0.275-0.146,0.377c-0.076,0.103-0.216,0.232-0.421,0.389h2.622
			c-0.201-0.161-0.338-0.292-0.414-0.392c-0.076-0.1-0.126-0.231-0.15-0.392c-0.025-0.161-0.037-0.42-0.037-0.776v-3.194
			c0-0.4,0.071-0.7,0.213-0.901c0.156-0.214,0.366-0.383,0.629-0.505c0.264-0.122,0.555-0.183,0.872-0.183
			c0.327,0,0.636,0.062,0.926,0.187c0.291,0.124,0.512,0.287,0.663,0.487c0.122,0.146,0.21,0.343,0.264,0.589
			c0.054,0.247,0.081,0.58,0.081,1v2.52c0,0.341-0.013,0.595-0.037,0.761c-0.025,0.166-0.076,0.302-0.154,0.407
			c-0.078,0.105-0.22,0.235-0.425,0.392h2.644c-0.278-0.22-0.448-0.409-0.509-0.568c-0.061-0.159-0.091-0.489-0.091-0.992v-2.688
			c0-0.601-0.027-1.051-0.081-1.352c-0.054-0.3-0.151-0.562-0.293-0.787c-0.151-0.22-0.351-0.416-0.6-0.59
			c-0.249-0.173-0.536-0.306-0.861-0.399s-0.648-0.139-0.97-0.139c-0.469,0-0.879,0.092-1.231,0.275
			c-0.351,0.183-0.723,0.501-1.113,0.955v-1.318C101.056,29.423,100.746,29.523,100.312,29.523 M96.286,26.879
			c-0.195,0.191-0.293,0.42-0.293,0.689c0,0.278,0.094,0.514,0.282,0.707c0.188,0.193,0.419,0.289,0.692,0.289
			c0.283,0,0.519-0.096,0.707-0.289c0.188-0.193,0.282-0.429,0.282-0.707c0-0.264-0.093-0.492-0.278-0.685
			c-0.186-0.193-0.413-0.289-0.682-0.289C96.718,26.594,96.481,26.689,96.286,26.879 M96.791,29.523h-1.098
			c0.205,0.157,0.345,0.286,0.421,0.389c0.076,0.102,0.124,0.227,0.146,0.373c0.022,0.147,0.033,0.413,0.033,0.798v4.183
			c0,0.38-0.011,0.645-0.033,0.794c-0.022,0.149-0.07,0.275-0.146,0.377c-0.076,0.103-0.216,0.232-0.421,0.389h2.622
			c-0.2-0.161-0.338-0.292-0.414-0.392c-0.076-0.1-0.126-0.231-0.15-0.392c-0.025-0.161-0.037-0.42-0.037-0.776v-6.043
			C97.529,29.423,97.221,29.523,96.791,29.523 M89.352,27.377c0.576,0,1.041,0.164,1.396,0.491c0.354,0.327,0.531,0.747,0.531,1.26
			c0,1.216-0.882,1.973-2.644,2.27c0.429,0.723,0.876,1.414,1.34,2.073c0.464,0.659,0.942,1.282,1.435,1.868
			c0.342,0.41,0.641,0.731,0.898,0.963c0.256,0.232,0.504,0.392,0.743,0.48c0.239,0.088,0.508,0.132,0.806,0.132
			c0.185,0,0.669-0.03,1.45-0.088c-0.625-0.327-1.295-0.869-2.011-1.626c-0.715-0.757-1.654-1.914-2.816-3.472
			c0.488-0.122,0.928-0.321,1.319-0.597c0.39-0.276,0.695-0.598,0.915-0.967c0.22-0.368,0.33-0.753,0.33-1.153
			c0-0.381-0.093-0.753-0.279-1.117c-0.185-0.364-0.442-0.665-0.769-0.905c-0.552-0.41-1.333-0.615-2.343-0.615
			c-0.269,0-0.494,0.005-0.674,0.015c-0.23,0.009-0.474,0.014-0.733,0.014h-2.299c0.195,0.103,0.344,0.226,0.446,0.37
			c0.103,0.144,0.172,0.342,0.209,0.593c0.037,0.252,0.055,0.605,0.055,1.059v6.379c0,0.454-0.018,0.807-0.055,1.059
			c-0.037,0.251-0.106,0.449-0.209,0.593c-0.102,0.144-0.251,0.267-0.446,0.37h3.002c-0.2-0.103-0.349-0.225-0.446-0.367
			c-0.098-0.141-0.165-0.339-0.202-0.593c-0.036-0.254-0.055-0.608-0.055-1.062v-7.309C88.671,27.417,89.04,27.377,89.352,27.377
			 M80.814,33.519c0.178-0.027,0.458-0.041,0.839-0.041h1.889c0.195,0,0.333-0.017,0.414-0.051s0.167-0.112,0.26-0.234l0.857-1.135
			c-0.225,0.087-0.435,0.146-0.63,0.175c-0.195,0.03-0.515,0.044-0.959,0.044h-1.678c-0.185,0-0.327,0.019-0.424,0.055
			c-0.098,0.037-0.186,0.109-0.264,0.216l-0.901,1.128C80.437,33.598,80.636,33.546,80.814,33.519 M74.371,30.717
			c0.366-0.307,0.818-0.461,1.355-0.461c1.118,0,1.789,0.591,2.014,1.772h-4.094C73.763,31.462,74.005,31.025,74.371,30.717
			 M79.403,32.761c0-0.498-0.091-0.959-0.271-1.381c-0.181-0.422-0.433-0.787-0.755-1.095c-0.322-0.307-0.703-0.547-1.142-0.718
			c-0.44-0.171-0.918-0.256-1.436-0.256c-0.527,0-1.014,0.077-1.461,0.231c-0.447,0.154-0.839,0.382-1.176,0.685
			c-0.259,0.234-0.486,0.511-0.681,0.831c-0.195,0.32-0.345,0.659-0.45,1.018c-0.105,0.359-0.158,0.721-0.158,1.088
			c0,0.747,0.189,1.416,0.568,2.006c0.378,0.591,0.911,1.05,1.597,1.377c0.686,0.327,1.458,0.491,2.318,0.491
			c0.254,0,0.506-0.012,0.758-0.037c0.251-0.024,0.49-0.064,0.718-0.12c0.227-0.056,0.465-0.131,0.714-0.224l0.857-1.509
			c-0.289,0.196-0.567,0.353-0.835,0.473c-0.269,0.12-0.556,0.207-0.861,0.263c-0.305,0.057-0.624,0.085-0.956,0.085
			c-0.62,0-1.167-0.117-1.64-0.352c-0.474-0.234-0.84-0.574-1.099-1.018c-0.259-0.444-0.403-0.972-0.432-1.582h5.823V32.761z
			 M65.879,30.717c0.366-0.307,0.818-0.461,1.355-0.461c1.118,0,1.789,0.591,2.014,1.772h-4.094
			C65.271,31.462,65.513,31.025,65.879,30.717 M70.911,32.761c0-0.498-0.091-0.959-0.271-1.381
			c-0.181-0.422-0.433-0.787-0.755-1.095c-0.322-0.307-0.703-0.547-1.142-0.718c-0.44-0.171-0.918-0.256-1.436-0.256
			c-0.527,0-1.014,0.077-1.461,0.231c-0.447,0.154-0.839,0.382-1.176,0.685c-0.258,0.234-0.486,0.511-0.681,0.831
			s-0.345,0.659-0.45,1.018c-0.105,0.359-0.158,0.721-0.158,1.088c0,0.747,0.189,1.416,0.568,2.006
			c0.378,0.591,0.911,1.05,1.597,1.377c0.686,0.327,1.458,0.491,2.318,0.491c0.254,0,0.506-0.012,0.758-0.037
			c0.251-0.024,0.491-0.064,0.718-0.12c0.227-0.056,0.465-0.131,0.714-0.224l0.857-1.509c-0.289,0.196-0.567,0.353-0.835,0.473
			c-0.269,0.12-0.556,0.207-0.861,0.263c-0.305,0.057-0.624,0.085-0.956,0.085c-0.62,0-1.167-0.117-1.64-0.352
			c-0.474-0.234-0.84-0.574-1.099-1.018c-0.259-0.444-0.403-0.972-0.432-1.582h5.823V32.761z M60.669,36.434
			c-0.076-0.1-0.126-0.231-0.151-0.392c-0.024-0.161-0.036-0.42-0.036-0.776v-2.608c0-0.649,0.112-1.13,0.337-1.443
			c0.136-0.2,0.327-0.357,0.571-0.472s0.508-0.172,0.791-0.172c0.322,0,0.571,0.085,0.747,0.256V29.37
			c-0.22-0.039-0.403-0.059-0.549-0.059c-0.41,0-0.777,0.104-1.099,0.311c-0.322,0.208-0.588,0.509-0.798,0.905v-1.304
			c-0.186,0.2-0.493,0.3-0.923,0.3H58.46c0.205,0.157,0.346,0.286,0.421,0.389c0.076,0.102,0.125,0.227,0.147,0.373
			c0.022,0.147,0.033,0.413,0.033,0.798v4.183c0,0.38-0.011,0.645-0.033,0.794c-0.022,0.149-0.071,0.275-0.147,0.377
			c-0.075,0.103-0.216,0.232-0.421,0.389h2.622C60.882,36.665,60.744,36.534,60.669,36.434 M58.794,26.374
			c0.029,0-0.176,0.01-0.615,0.029h-5.955c-0.317,0-0.586-0.036-0.805-0.11l-0.586,1.89c0.317-0.239,0.614-0.399,0.889-0.48
			c0.276-0.08,0.663-0.121,1.161-0.121c0.557,0,0.982,0.018,1.275,0.052v7.17c0,0.454-0.02,0.808-0.059,1.062
			c-0.039,0.254-0.107,0.452-0.205,0.593c-0.098,0.142-0.244,0.264-0.439,0.367h3.134c-0.219-0.142-0.39-0.29-0.512-0.443
			c-0.122-0.154-0.208-0.343-0.257-0.568c-0.048-0.225-0.073-0.508-0.073-0.85v-7.331h0.256c0.513-0.034,0.884-0.052,1.114-0.052
			c0.449,0,0.781,0.043,0.996,0.129c0.215,0.085,0.378,0.243,0.491,0.472l0.505-1.89C59.05,26.313,58.945,26.34,58.794,26.374"/>
		<path style="fill:#00275B;" d="M142.028,15.071c0.273,0,0.46,0.016,0.56,0.048c0.1,0.031,0.194,0.101,0.282,0.208v-1.399
			c-0.176,0.064-0.361,0.096-0.556,0.096h-1.604v-1.011c0-0.474,0.048-0.784,0.146-0.93c0.186-0.308,0.51-0.462,0.974-0.462
			c0.283,0,0.554,0.086,0.813,0.257l1.128-1.231c-0.439-0.073-0.801-0.11-1.084-0.11c-0.571,0-1.063,0.061-1.476,0.183
			c-0.412,0.123-0.765,0.313-1.058,0.572c-0.313,0.268-0.536,0.554-0.67,0.857c-0.135,0.302-0.202,0.671-0.202,1.106v0.769
			l-0.791,1.047h0.791v4.695c0,0.342-0.012,0.597-0.036,0.765c-0.025,0.169-0.075,0.305-0.15,0.41
			c-0.076,0.105-0.214,0.234-0.414,0.385h2.702c-0.112-0.068-0.19-0.127-0.234-0.176c-0.044-0.049-0.117-0.156-0.22-0.322
			c-0.058-0.112-0.104-0.233-0.135-0.363c-0.032-0.129-0.054-0.308-0.066-0.538c-0.012-0.229-0.018-0.464-0.018-0.703v-4.153
			H142.028z M134.913,15.247c0.393,0.249,0.698,0.598,0.915,1.047c0.218,0.449,0.326,0.967,0.326,1.553
			c0,0.517-0.103,0.974-0.311,1.37c-0.208,0.395-0.499,0.703-0.875,0.922c-0.376,0.22-0.801,0.33-1.275,0.33
			c-0.356,0-0.689-0.072-0.999-0.216c-0.31-0.144-0.585-0.353-0.824-0.626c-0.24-0.274-0.423-0.594-0.55-0.96
			c-0.127-0.366-0.19-0.749-0.19-1.15c0-0.507,0.101-0.964,0.304-1.369c0.202-0.406,0.487-0.719,0.853-0.941
			c0.366-0.223,0.786-0.334,1.26-0.334C134.064,14.873,134.52,14.998,134.913,15.247 M132.734,13.906
			c-0.322,0.064-0.628,0.16-0.916,0.29c-0.288,0.129-0.561,0.292-0.82,0.487c-0.464,0.361-0.828,0.809-1.091,1.344
			c-0.264,0.534-0.396,1.095-0.396,1.681c0,0.713,0.175,1.362,0.524,1.948c0.349,0.586,0.835,1.046,1.457,1.381
			c0.623,0.334,1.313,0.501,2.07,0.501c0.776,0,1.488-0.173,2.135-0.52c0.647-0.346,1.154-0.819,1.523-1.417
			c0.369-0.598,0.553-1.258,0.553-1.981c0-0.528-0.105-1.034-0.315-1.52c-0.21-0.486-0.515-0.909-0.915-1.271
			c-0.738-0.678-1.651-1.018-2.74-1.018C133.413,13.811,133.056,13.843,132.734,13.906 M119.14,14.47
			c-0.132-0.293-0.242-0.446-0.33-0.461c-0.068-0.034-0.227-0.051-0.476-0.051l-1.531,0.066c0.264,0.112,0.475,0.261,0.634,0.446
			c0.159,0.186,0.343,0.506,0.553,0.96l2.095,4.578c0.107,0.239,0.188,0.407,0.241,0.505c0.054,0.098,0.116,0.187,0.187,0.267
			c0.071,0.081,0.199,0.214,0.385,0.399l-0.154,0.418c-0.234,0.605-0.504,1.057-0.809,1.355c-0.306,0.298-0.656,0.447-1.051,0.447
			c-0.284,0-0.582-0.091-0.894-0.271l-1.428,1.032c0.444,0.157,0.802,0.263,1.073,0.319c0.271,0.056,0.553,0.084,0.846,0.084
			c0.42,0,0.811-0.057,1.175-0.172c0.364-0.115,0.687-0.287,0.971-0.516c0.263-0.215,0.484-0.452,0.663-0.711
			c0.178-0.259,0.362-0.622,0.553-1.091l3.376-8.049H123c0.307,0.205,0.461,0.444,0.461,0.717c0,0.249-0.08,0.569-0.242,0.96
			l-1.662,4.211L119.14,14.47z M114.13,20.934c-0.076-0.1-0.126-0.231-0.15-0.392c-0.025-0.161-0.037-0.42-0.037-0.776v-2.608
			c0-0.649,0.113-1.13,0.337-1.442c0.137-0.201,0.327-0.358,0.571-0.473c0.245-0.115,0.508-0.172,0.791-0.172
			c0.323,0,0.572,0.085,0.748,0.256V13.87c-0.22-0.039-0.403-0.059-0.55-0.059c-0.41,0-0.776,0.104-1.098,0.312
			c-0.323,0.207-0.589,0.509-0.799,0.904v-1.304c-0.185,0.201-0.493,0.301-0.923,0.301h-1.098c0.205,0.156,0.345,0.285,0.421,0.388
			c0.076,0.102,0.124,0.227,0.146,0.373c0.022,0.147,0.033,0.413,0.033,0.799v4.182c0,0.381-0.011,0.646-0.033,0.795
			c-0.022,0.149-0.07,0.274-0.146,0.377c-0.076,0.102-0.216,0.232-0.421,0.388h2.622C114.344,21.165,114.206,21.034,114.13,20.934
			 M108.194,15.247c0.393,0.249,0.698,0.598,0.916,1.047c0.217,0.449,0.326,0.967,0.326,1.553c0,0.517-0.104,0.974-0.312,1.37
			c-0.207,0.395-0.499,0.703-0.875,0.922c-0.376,0.22-0.801,0.33-1.274,0.33c-0.357,0-0.69-0.072-1-0.216
			c-0.31-0.144-0.585-0.353-0.824-0.626c-0.239-0.274-0.422-0.594-0.549-0.96c-0.127-0.366-0.191-0.749-0.191-1.15
			c0-0.507,0.102-0.964,0.304-1.369c0.203-0.406,0.487-0.719,0.853-0.941c0.367-0.223,0.787-0.334,1.26-0.334
			C107.346,14.873,107.801,14.998,108.194,15.247 M106.015,13.906c-0.322,0.064-0.627,0.16-0.915,0.29
			c-0.288,0.129-0.562,0.292-0.821,0.487c-0.464,0.361-0.827,0.809-1.091,1.344c-0.264,0.534-0.395,1.095-0.395,1.681
			c0,0.713,0.174,1.362,0.523,1.948c0.349,0.586,0.835,1.046,1.458,1.381c0.622,0.334,1.312,0.501,2.069,0.501
			c0.776,0,1.488-0.173,2.135-0.52c0.647-0.346,1.155-0.819,1.523-1.417c0.369-0.598,0.553-1.258,0.553-1.981
			c0-0.528-0.105-1.034-0.315-1.52c-0.21-0.486-0.515-0.909-0.915-1.271c-0.737-0.678-1.651-1.018-2.739-1.018
			C106.694,13.811,106.338,13.843,106.015,13.906 M101.381,15.071c0.268,0,0.471,0.021,0.607,0.062
			c0.137,0.042,0.264,0.116,0.381,0.224v-1.429c-0.151,0.064-0.461,0.096-0.93,0.096h-1.23v-2.359h-0.616v0.198
			c0,0.889-0.195,1.538-0.585,1.948c-0.328,0.366-0.762,0.596-1.304,0.689v0.571h1.084v3.494c0,0.508,0.014,0.888,0.044,1.142
			c0.029,0.254,0.083,0.463,0.161,0.626c0.078,0.164,0.2,0.334,0.366,0.509c0.444,0.464,0.984,0.696,1.619,0.696
			c0.2,0,0.39-0.032,0.571-0.095l0.82-1.121c-0.234,0.088-0.454,0.132-0.659,0.132c-0.517,0-0.923-0.18-1.216-0.542
			c-0.112-0.141-0.188-0.312-0.227-0.512c-0.039-0.201-0.058-0.523-0.058-0.967v-3.362H101.381z M95.043,20.513
			c0.08,0.22,0.24,0.405,0.479,0.557c0.191,0.117,0.391,0.199,0.601,0.245s0.505,0.084,0.886,0.113l0.689-1.032
			c-0.435-0.015-0.75-0.1-0.945-0.257c-0.181-0.131-0.293-0.274-0.337-0.428c-0.044-0.154-0.066-0.455-0.066-0.905v-2.043
			c0-0.581-0.018-0.985-0.055-1.212c-0.037-0.227-0.123-0.453-0.26-0.678c-0.444-0.708-1.336-1.062-2.673-1.062
			c-0.381,0-0.747,0.034-1.099,0.103l-1.047,1.589c0.517-0.249,0.925-0.416,1.223-0.502c0.298-0.085,0.61-0.128,0.937-0.128
			c0.293,0,0.556,0.042,0.788,0.125s0.411,0.201,0.538,0.355s0.19,0.331,0.19,0.531c0,0.283-0.118,0.498-0.355,0.645
			c-0.237,0.146-0.714,0.29-1.432,0.432c-0.991,0.19-1.684,0.395-2.08,0.615c-0.268,0.142-0.483,0.36-0.644,0.655
			c-0.161,0.296-0.242,0.607-0.242,0.934c0,0.689,0.268,1.275,0.806,1.758c0.459,0.41,1.084,0.615,1.875,0.615
			c0.307,0,0.598-0.032,0.871-0.095l0.93-1.179c-0.449,0.137-0.844,0.205-1.186,0.205c-0.527,0-0.939-0.115-1.234-0.344
			c-0.296-0.23-0.443-0.545-0.443-0.945c0-0.625,0.381-1.03,1.142-1.216c0.572-0.132,0.939-0.22,1.103-0.264
			c0.163-0.044,0.312-0.089,0.446-0.135c0.135-0.046,0.292-0.114,0.473-0.202v2.044C94.922,19.925,94.962,20.293,95.043,20.513
			 M87.723,20.934c-0.076-0.1-0.126-0.231-0.15-0.392c-0.025-0.161-0.037-0.42-0.037-0.776v-2.608c0-0.649,0.112-1.13,0.337-1.442
			c0.137-0.201,0.327-0.358,0.571-0.473c0.245-0.115,0.508-0.172,0.791-0.172c0.323,0,0.572,0.085,0.748,0.256V13.87
			c-0.22-0.039-0.403-0.059-0.55-0.059c-0.41,0-0.776,0.104-1.098,0.312c-0.323,0.207-0.589,0.509-0.799,0.904v-1.304
			c-0.185,0.201-0.493,0.301-0.923,0.301h-1.098c0.205,0.156,0.345,0.285,0.421,0.388c0.076,0.102,0.124,0.227,0.146,0.373
			c0.022,0.147,0.033,0.413,0.033,0.799v4.182c0,0.381-0.011,0.646-0.033,0.795s-0.07,0.274-0.146,0.377
			c-0.076,0.102-0.216,0.232-0.421,0.388h2.622C87.937,21.165,87.799,21.034,87.723,20.934 M81.787,15.247
			c0.393,0.249,0.698,0.598,0.916,1.047c0.217,0.449,0.326,0.967,0.326,1.553c0,0.517-0.104,0.974-0.312,1.37
			c-0.207,0.395-0.499,0.703-0.875,0.922c-0.376,0.22-0.801,0.33-1.274,0.33c-0.357,0-0.69-0.072-1-0.216
			c-0.31-0.144-0.585-0.353-0.824-0.626c-0.239-0.274-0.422-0.594-0.549-0.96c-0.127-0.366-0.191-0.749-0.191-1.15
			c0-0.507,0.101-0.964,0.304-1.369c0.203-0.406,0.487-0.719,0.853-0.941c0.367-0.223,0.787-0.334,1.26-0.334
			C80.939,14.873,81.394,14.998,81.787,15.247 M79.608,13.906c-0.322,0.064-0.627,0.16-0.915,0.29
			c-0.288,0.129-0.562,0.292-0.821,0.487c-0.464,0.361-0.827,0.809-1.091,1.344c-0.264,0.534-0.395,1.095-0.395,1.681
			c0,0.713,0.174,1.362,0.523,1.948c0.349,0.586,0.835,1.046,1.458,1.381c0.622,0.334,1.312,0.501,2.069,0.501
			c0.776,0,1.488-0.173,2.135-0.52c0.647-0.346,1.155-0.819,1.523-1.417c0.369-0.598,0.553-1.258,0.553-1.981
			c0-0.528-0.105-1.034-0.315-1.52c-0.21-0.486-0.515-0.909-0.915-1.271c-0.738-0.678-1.651-1.018-2.739-1.018
			C80.287,13.811,79.93,13.843,79.608,13.906 M70.807,15.056c0.191-0.048,0.408-0.073,0.652-0.073c0.454,0,0.858,0.117,1.212,0.352
			c0.354,0.234,0.63,0.563,0.828,0.985c0.198,0.422,0.297,0.907,0.297,1.454c0,0.81-0.242,1.452-0.726,1.926
			c-0.483,0.474-1.137,0.71-1.962,0.71c-0.396,0-0.845-0.061-1.348-0.183v-9.624c-0.205,0.201-0.515,0.301-0.93,0.301h-1.092
			c0.206,0.156,0.346,0.285,0.422,0.388c0.075,0.102,0.124,0.227,0.146,0.373c0.022,0.147,0.033,0.413,0.033,0.799v7.675
			c0,0.323-0.032,0.557-0.095,0.703c-0.064,0.147-0.193,0.284-0.388,0.411c0.795,0.19,1.811,0.285,3.047,0.285
			c0.883,0,1.669-0.171,2.358-0.512c0.688-0.342,1.219-0.821,1.593-1.436c0.373-0.615,0.56-1.326,0.56-2.131
			c0-0.518-0.083-0.998-0.249-1.44c-0.166-0.441-0.403-0.828-0.71-1.16c-0.308-0.332-0.666-0.59-1.073-0.773
			c-0.408-0.183-0.849-0.275-1.322-0.275c-0.21,0-0.391,0.015-0.542,0.044c-0.152,0.029-0.332,0.081-0.542,0.154l-0.872,1.333
			C70.382,15.2,70.617,15.105,70.807,15.056 M64.666,20.513c0.081,0.22,0.241,0.405,0.48,0.557c0.19,0.117,0.391,0.199,0.6,0.245
			c0.21,0.046,0.506,0.084,0.887,0.113l0.688-1.032c-0.434-0.015-0.749-0.1-0.945-0.257c-0.18-0.131-0.293-0.274-0.337-0.428
			c-0.043-0.154-0.065-0.455-0.065-0.905v-2.043c0-0.581-0.019-0.985-0.055-1.212c-0.037-0.227-0.124-0.453-0.26-0.678
			c-0.445-0.708-1.336-1.062-2.674-1.062c-0.381,0-0.747,0.034-1.098,0.103l-1.048,1.589c0.518-0.249,0.926-0.416,1.223-0.502
			c0.298-0.085,0.611-0.128,0.938-0.128c0.293,0,0.555,0.042,0.787,0.125c0.232,0.083,0.412,0.201,0.539,0.355
			c0.127,0.154,0.19,0.331,0.19,0.531c0,0.283-0.118,0.498-0.355,0.645c-0.237,0.146-0.714,0.29-1.432,0.432
			c-0.991,0.19-1.685,0.395-2.08,0.615c-0.269,0.142-0.484,0.36-0.645,0.655c-0.161,0.296-0.241,0.607-0.241,0.934
			c0,0.689,0.268,1.275,0.805,1.758c0.459,0.41,1.084,0.615,1.875,0.615c0.308,0,0.598-0.032,0.872-0.095l0.93-1.179
			c-0.449,0.137-0.845,0.205-1.186,0.205c-0.528,0-0.939-0.115-1.235-0.344c-0.295-0.23-0.443-0.545-0.443-0.945
			c0-0.625,0.381-1.03,1.143-1.216c0.571-0.132,0.938-0.22,1.102-0.264c0.164-0.044,0.313-0.089,0.447-0.135
			c0.134-0.046,0.292-0.114,0.472-0.202v2.044C64.545,19.925,64.586,20.293,64.666,20.513 M54.066,11.863
			c0.037-0.254,0.104-0.452,0.201-0.593c0.098-0.142,0.247-0.264,0.447-0.366h-3.003c0.195,0.102,0.345,0.225,0.447,0.369
			c0.103,0.144,0.172,0.342,0.209,0.594c0.036,0.251,0.055,0.604,0.055,1.058v6.379c0,0.455-0.019,0.807-0.055,1.059
			c-0.037,0.251-0.106,0.449-0.209,0.593c-0.102,0.144-0.252,0.267-0.447,0.37h6.468l0.842-2.102
			c-0.523,0.371-0.989,0.626-1.399,0.765s-0.903,0.209-1.48,0.209c-0.683,0-1.394-0.054-2.131-0.161v-7.112
			C54.011,12.471,54.029,12.117,54.066,11.863"/>
		<path style="fill:#00275B;" d="M114.864,5.826h2.557V5.272h-1.89V3.599h1.612V3.067h-1.612V1.709h1.89V1.153h-2.557V5.826z
			 M112.606,5.885c0.45,0,0.825-0.067,1.147-0.21V5.069c-0.262,0.143-0.6,0.248-1.035,0.248c-0.997,0-1.56-0.675-1.56-1.763
			c0-1.17,0.488-1.89,1.493-1.89c0.472,0,0.802,0.105,1.02,0.24V1.288c-0.195-0.09-0.563-0.195-1.073-0.195
			c-1.44,0-2.151,1.095-2.151,2.46C110.447,4.926,111.211,5.885,112.606,5.885 M105.714,5.826h0.607V2.737
			c0-0.248-0.015-0.428-0.015-0.63h0.015c0.112,0.225,0.247,0.48,0.39,0.712l1.883,3.007h0.712V1.153h-0.607v3.09
			c0,0.247,0.008,0.45,0.015,0.66h-0.022c-0.105-0.233-0.263-0.525-0.398-0.735l-1.883-3.015h-0.697V5.826z M101.979,5.826h2.557
			V5.272h-1.89V3.599h1.612V3.067h-1.612V1.709h1.89V1.153h-2.557V5.826z M99.887,5.826h0.667V1.153h-0.667V5.826z M97.598,5.885
			c0.45,0,0.825-0.067,1.148-0.21V5.069c-0.263,0.143-0.6,0.248-1.035,0.248c-0.998,0-1.56-0.675-1.56-1.763
			c0-1.17,0.487-1.89,1.492-1.89c0.473,0,0.803,0.105,1.02,0.24V1.288c-0.195-0.09-0.562-0.195-1.072-0.195
			c-1.44,0-2.152,1.095-2.152,2.46C95.439,4.926,96.203,5.885,97.598,5.885 M93.084,5.885c0.908,0,1.53-0.517,1.53-1.327
			c0-0.892-0.652-1.178-1.237-1.433c-0.578-0.255-0.878-0.375-0.878-0.81c0-0.427,0.292-0.675,0.84-0.675
			c0.42,0,0.833,0.128,1.057,0.24V1.297c-0.172-0.06-0.622-0.203-1.087-0.203c-0.87,0-1.477,0.412-1.477,1.23
			c0,0.78,0.487,1.065,0.982,1.29c0.683,0.315,1.096,0.435,1.096,0.975c0,0.51-0.361,0.75-0.939,0.75
			c-0.42,0-0.884-0.157-1.169-0.285v0.592C92.109,5.78,92.566,5.885,93.084,5.885 M86.582,5.826h0.667v-2.22h1.755V3.082h-1.755
			V1.709h1.95V1.153h-2.617V5.826z M83.357,5.332c-0.953,0-1.373-0.75-1.373-1.838c0-1.088,0.42-1.845,1.373-1.845
			c0.953,0,1.38,0.75,1.38,1.837C84.737,4.574,84.31,5.332,83.357,5.332 M83.357,5.885c1.44,0,2.092-1.132,2.092-2.4
			c0-1.335-0.652-2.392-2.092-2.392c-1.441,0-2.092,1.132-2.092,2.4C81.265,4.828,81.916,5.885,83.357,5.885 M76,5.826h2.556V5.272
			h-1.89V3.599h1.613V3.067h-1.613V1.709h1.89V1.153H76V5.826z M73.277,5.885c0.69,0,1.08-0.142,1.41-0.262v-2.19H73.24v0.517h0.817
			v1.261c-0.202,0.075-0.397,0.12-0.712,0.12c-0.983,0-1.591-0.6-1.591-1.778c0-1.148,0.488-1.905,1.598-1.905
			c0.458,0,0.825,0.112,1.102,0.262V1.327c-0.239-0.113-0.554-0.233-1.139-0.233c-1.561,0-2.28,1.102-2.28,2.46
			C71.035,5.023,71.889,5.885,73.277,5.885 M67.585,5.826h2.557V5.272h-1.89V3.599h1.612V3.067h-1.612V1.709h1.89V1.153h-2.557
			V5.826z M64.113,5.826h2.466V5.279h-1.8V1.153h-0.666V5.826z M60.64,5.826h2.467V5.279h-1.8V1.153H60.64V5.826z M57.415,5.332
			c-0.953,0-1.373-0.75-1.373-1.838c0-1.088,0.42-1.845,1.373-1.845c0.953,0,1.38,0.75,1.38,1.837
			C58.795,4.574,58.368,5.332,57.415,5.332 M57.415,5.885c1.44,0,2.092-1.132,2.092-2.4c0-1.335-0.652-2.392-2.092-2.392
			c-1.44,0-2.092,1.132-2.092,2.4C55.323,4.828,55.975,5.885,57.415,5.885 M53.522,5.885c0.45,0,0.825-0.067,1.147-0.21V5.069
			c-0.262,0.143-0.599,0.248-1.034,0.248c-0.998,0-1.561-0.675-1.561-1.763c0-1.17,0.488-1.89,1.493-1.89
			c0.473,0,0.802,0.105,1.02,0.24V1.288c-0.195-0.09-0.562-0.195-1.073-0.195c-1.44,0-2.151,1.095-2.151,2.46
			C51.363,4.926,52.127,5.885,53.522,5.885"/>
	</g>
</g>
</svg>
